<svg width="152" height="132" viewBox="0 0 152 132" fill="none" xmlns="http://www.w3.org/2000/svg">
<rect width="35.0969" height="35.0969" transform="matrix(3.77048e-05 -1 0.866006 -0.500033 106.201 122.727)" fill="#212121"/>
<rect width="35.0969" height="35.0969" transform="matrix(0.866006 0.500033 3.77048e-05 1 75.8963 70.0808)" fill="#121212"/>
<rect width="35.0969" height="35.0969" transform="matrix(0.866044 -0.499967 0.866044 0.499967 75.8693 70.1667)" fill="#1C1C1C"/>
<rect width="35.0969" height="35.0969" transform="matrix(3.77048e-05 -1 0.866006 -0.500033 45.5013 122.727)" fill="#212121"/>
<rect width="35.0969" height="35.0969" transform="matrix(0.866006 0.500033 3.77048e-05 1 15.1964 70.0808)" fill="#121212"/>
<rect width="35.0969" height="35.0969" transform="matrix(0.866044 -0.499967 0.866044 0.499967 15.1693 70.1667)" fill="#1C1C1C"/>
<rect width="35.1274" height="35.1274" transform="matrix(3.77048e-05 -1 0.866006 -0.500033 75.8708 70.1687)" fill="#212121"/>
<rect width="35.1274" height="35.1274" transform="matrix(0.866006 0.500033 3.77048e-05 1 45.5396 17.4765)" fill="#121212"/>
<rect width="35.1274" height="35.1274" transform="matrix(0.866044 -0.499967 0.866044 0.499967 45.5125 17.5626)" fill="#1C1C1C"/>
</svg>
