<svg width="150" height="131" viewBox="0 0 150 131" fill="none" xmlns="http://www.w3.org/2000/svg">
<rect width="35.0969" height="35.0969" transform="matrix(3.77048e-05 -1 0.866006 -0.500033 104.408 121.727)" fill="#212121"/>
<rect width="35.0969" height="35.0969" transform="matrix(0.866006 0.500033 3.77048e-05 1 74.1033 69.0808)" fill="#121212"/>
<rect width="35.0969" height="35.0969" transform="matrix(0.866044 -0.499967 0.866044 0.499967 74.0762 69.1667)" fill="#1C1C1C"/>
<rect width="35.0969" height="35.0969" transform="matrix(3.77048e-05 -1 0.866006 -0.500033 45.5013 121.727)" fill="#212121"/>
<rect width="35.0969" height="35.0969" transform="matrix(0.866006 0.500033 3.77048e-05 1 15.1964 69.0808)" fill="#121212"/>
<rect width="35.0969" height="35.0969" transform="matrix(0.866044 -0.499967 0.866044 0.499967 15.1693 69.1667)" fill="#1C1C1C"/>
<rect width="35.0969" height="35.0969" transform="matrix(3.77048e-05 -1 0.866006 -0.500033 74.0438 70.1078)" fill="#212121"/>
<rect width="35.0969" height="35.0969" transform="matrix(0.866006 0.500033 3.77048e-05 1 43.7389 17.4613)" fill="#121212"/>
<rect width="35.0969" height="35.0969" transform="matrix(0.866044 -0.499967 0.866044 0.499967 43.7119 17.5473)" fill="#1C1C1C"/>
</svg>
